<?xml version="1.0" encoding="UTF-8"?>
<svg id="Layer_1" data-name="Layer 1" xmlns="http://www.w3.org/2000/svg" viewBox="0 0 80 31">
  <defs>
    <style>
      .cls-1 {
        fill: #fb6400;
      }

      .cls-1, .cls-2, .cls-3, .cls-4 {
        stroke-width: 0px;
      }

      .cls-2 {
        fill: #5d5d5d;
      }

      .cls-3 {
        fill: #f60;
      }

      .cls-4 {
        fill: #26292e;
      }
    </style>
  </defs>
  <path class="cls-3" d="M57.73,26.29h0c-.99-.9-1.08-1.02-1.08-1.68,0-.56.05-.91.54-.91s.56.34.56.91v.75h1.27v-1.22c0-.96-.73-1.45-1.86-1.45s-1.84.38-1.85,1.91v.16c0,.48,0,1.24,1.17,2.27l.33.29c.86.74.95.83.95,1.71,0,.54-.03.95-.59.95s-.59-.41-.59-.67v-1.04h-1.33v1.07c0,1.32.84,1.64,1.92,1.64s1.93-.33,1.93-2.02v-.14c0-1.18-.21-1.5-1.37-2.55ZM51.14,19.69c-.27.26-.35.66-.35,1.24v1.86s-.75,0-.75,0v1.08h.75v7.03h1.32v-7.03h.92v-1.08h-.92v-1.65c0-.24.05-.42.16-.55s.29-.19.52-.19h.24v-1.1h-.48c-.59,0-1.15.13-1.42.39ZM53.44,30.9h1.32v-8.11h-1.32v8.11ZM61.56,22.7c-1.39,0-2.03.61-2.03,2.12v4.11c0,1.37.82,2.08,2.03,2.08s2.03-.58,2.04-2.08v-.65h-1.27v.77c0,.55-.2.93-.74.93s-.74-.38-.74-.93v-1.74h2.75v-2.5c0-1.49-.71-2.11-2.04-2.11ZM62.32,26.21h-1.47v-1.67c0-.46.12-.93.73-.93s.74.47.74.93v1.68ZM71.37,29.41v1.49h1.45v-1.49h-1.45ZM70.15,22.79l-.86,6.64-.87-6.64h-1.35l1.25,8.11h1.92l1.26-8.11h-1.35ZM65.37,23.59v.03s-.01-.83-.01-.83h-1.2v8.1h1.3v-5.65c0-.44.14-.72.38-.89.23-.16.51-.22.87-.22v-1.44c-.69.01-.98.15-1.33.9Z"/>
  <path class="cls-2" d="M40.5,27.74c-.1.1-.15.27-.15.51v.35h-.35v.3h.35v2.02h.39v-2.02h.45v-.3h-.45v-.31c0-.16.03-.27.07-.32.05-.06.14-.09.28-.09.04,0,.07,0,.11,0v-.28c-.06-.01-.12-.02-.19-.02-.24,0-.41.05-.51.15ZM42.21,28.65c-.09.05-.16.15-.23.31v-.36h-.39c0,.17,0,.26,0,.3v2.02h.39v-1.45c0-.16.04-.28.13-.37.09-.09.22-.14.39-.14.06,0,.13,0,.19.01v-.39s-.08-.01-.12,0c-.16,0-.28.03-.37.08ZM44.39,28.78c-.15-.16-.37-.24-.66-.24-.31,0-.53.09-.67.25-.14.17-.21.49-.21.96,0,.5.07.83.22.99.14.16.36.24.65.24.31,0,.53-.08.68-.25h0c.15-.16.22-.48.22-.96,0-.51-.07-.84-.22-1ZM44.08,30.51c-.04.05-.1.09-.16.12-.06.03-.13.04-.19.04-.16,0-.28-.05-.36-.16-.08-.11-.11-.35-.11-.73s.04-.63.12-.75h0c.08-.12.2-.18.36-.18.07,0,.13,0,.2.04.06.03.11.07.15.13.08.11.12.33.12.66,0,.45-.04.73-.13.83ZM47.55,28.71c-.11-.11-.26-.16-.45-.16-.12,0-.24.02-.35.06-.11.05-.2.13-.25.24h0c-.04-.1-.11-.18-.2-.23-.11-.05-.23-.08-.35-.07-.12,0-.25.03-.35.09-.1.06-.17.15-.22.25v-.29h-.39v.26s0,2.06,0,2.06h.39v-1.57c0-.17.03-.29.1-.37s.17-.12.32-.12c.05,0,.1,0,.14.02.04.02.08.05.12.08.06.07.09.19.09.35v1.61h.39v-1.57c0-.17.03-.29.09-.37.06-.08.16-.12.3-.12s.23.04.29.11c.06.07.09.17.09.27v1.69h.39v-1.75c0-.19-.05-.34-.16-.45Z"/>
  <g>
    <path class="cls-4" d="M18.22,14.95h2.91V4.69h-2.91v10.25ZM62.71,11.18c-.16.99-.9,1.59-1.98,1.59-1.24,0-2.05-.72-2.05-2.03v-1.75c0-1.31.74-2.13,2.05-2.13,1.13,0,1.8.52,1.98,1.53h2.87c-.28-2.38-2.08-3.91-4.76-3.91-3.13,0-5.1,1.98-5.1,5.36s1.91,5.28,5.06,5.28c2.74,0,4.57-1.45,4.82-3.95h-2.88v.02ZM29.82,4.51c-1.59,0-2.71.69-3.37,2.08h-.17l-.35-1.89h-2.57v10.25h2.91v-5.42c0-1.59.87-2.61,2.25-2.61,1.24,0,1.87.72,1.87,2.21v5.83h2.93v-6.14c0-2.66-1.21-4.3-3.51-4.3ZM7.18,2.76v12.19h3.17v-6.05h5.29v-2.49h-5.29v-3.29h6.21V.5h-7.07c-1.53,0-2.3.74-2.3,2.25ZM44.39,4.69h-3.06l-1.89,3.45h-.16l-1.97-3.45h-3.09l3.12,5.15-3.06,5.1h3.06l1.94-3.47h.16l1.97,3.47h3.1l-3.15-5.18,3.02-5.07ZM54.06,8.25c0-1.06-.35-1.94-1.04-2.66-.68-.72-1.76-1.09-3.28-1.09-2.69,0-4.46,1.24-4.63,3.54h2.87c.06-.82.61-1.31,1.62-1.31s1.53.47,1.53,1.45v.6h-2.71c-2.3,0-3.73,1.2-3.73,3.2s1.28,3.15,3.29,3.15c1.53,0,2.79-.69,3.18-1.75h.14l.06.35c.16.82.61,1.21,1.81,1.21h2.14v-2.03h-1.26v-4.66ZM51.13,10.92c0,1.24-.8,2.03-2.13,2.03-.91,0-1.37-.35-1.37-1.01v-.39c0-.68.46-.99,1.35-.99h2.14v.36ZM72.82,7.04v-2.35h-2.03V1.48h-2.91v3.21h-1.81v2.35h1.81v5.64c0,1.51.77,2.25,2.3,2.25h2.65v-2.28h-2.03v-5.61h2.03Z"/>
    <circle class="cls-1" cx="19.69" cy="1.81" r="1.81"/>
  </g>
</svg>