<?xml version="1.0" encoding="UTF-8"?> <svg xmlns="http://www.w3.org/2000/svg" width="150" height="48" viewBox="0 0 150 48" fill="none"><path d="M9.19576 35.097H0.314407C0.0499081 35.0714 0.0227948 35.0159 0 34.7866V34.0512C0.0133625 33.92 0.0793947 33.8218 0.202408 33.7613L3.42081 32.5497L3.67705 4.85275L0.462579 3.64275C0.343102 3.58376 0.27395 3.48791 0.260195 3.35286V2.61746C0.286134 2.35629 0.34233 2.32951 0.574601 2.30701H7.82062C7.83987 2.30856 7.85874 2.3105 7.87799 2.31205C7.99315 2.34426 8.07567 2.41528 8.12204 2.52821L15.7736 27.6449L23.4614 2.52782C23.4614 2.52782 23.5722 2.32408 23.7625 2.30701H30.7113C30.9758 2.33262 31.0029 2.38811 31.0257 2.61746V3.39865C31.012 3.53059 30.9456 3.62877 30.8218 3.68931L27.6832 4.85391L27.9394 32.547L31.1543 33.7139C31.2753 33.7722 31.3461 33.8688 31.3602 34.0054V34.7866C31.3339 35.0477 31.2781 35.0741 31.0458 35.097H21.0499C20.7854 35.0714 20.7582 35.0159 20.7355 34.7866V34.0512C20.7488 33.9192 20.8156 33.8207 20.9398 33.7605L24.2266 32.5497L24.0226 9.15567L15.776 35.3384C15.6923 35.5379 15.6078 35.5445 15.4757 35.5565H14.6952C14.5632 35.5445 14.4743 35.5286 14.3949 35.3372L6.2285 9.10406L6.09252 32.5509L9.30778 33.7613C9.42726 33.8203 9.49641 33.9161 9.51017 34.0512V34.7866C9.48423 35.0477 9.42842 35.0741 9.19576 35.097Z" fill="#093CAD"></path><path d="M41.9657 11.0231C43.9185 11.0441 45.8141 11.7993 47.2132 13.2134C50.9818 17.0215 51.1241 23.7231 49.9446 28.3031C49.3135 30.7554 47.9913 33.1688 45.7009 34.496C42.6601 36.2578 38.401 35.7688 35.9517 33.1498C32.0582 28.9865 32.3934 21.6477 33.9069 17.2916C34.8045 14.7086 36.6501 12.2747 39.3855 11.4019C40.216 11.1368 41.0924 11.02 41.9657 11.0231ZM41.6768 13.2522C40.978 13.2623 40.2836 13.4478 39.6964 13.8254C38.1778 14.8018 37.5218 16.6416 37.1402 18.2975C36.5817 20.7237 36.5244 23.2505 36.7496 25.7357C36.9174 27.5864 37.2562 29.4705 38.2155 31.0969C38.9249 32.3007 40.1704 33.298 41.6453 33.3112C42.4204 33.3178 43.2017 33.1203 43.8517 32.7C45.7272 31.4873 46.3018 29.0979 46.5961 27.0745C46.8878 25.0682 46.8972 23.0289 46.7353 21.007C46.5903 19.1975 46.3073 17.3561 45.4615 15.7293C44.7596 14.3784 43.4006 13.2895 41.8069 13.253C41.7636 13.2522 41.72 13.2522 41.6768 13.2522Z" fill="#093CAD"></path><path d="M65.0512 35.458H64.5308C64.2761 35.4359 64.2368 35.3781 64.2164 35.1476V31.6522C62.8959 34.1689 60.1015 35.8764 57.1626 35.4933C55.7045 35.3036 54.3411 34.5286 53.5759 33.2029C52.9683 32.1509 52.7643 30.9153 52.7714 29.7165C52.7812 28.0079 53.3708 26.2739 54.5927 25.0605C56.4807 23.1845 59.2994 22.4414 62.0517 21.8841L64.0305 21.4762C64.0305 19.4183 64.0741 17.2377 63.0947 15.6164C62.1613 14.0711 60.0504 13.4432 58.2139 14.0451C56.8061 14.5061 55.6982 15.583 54.8226 16.7231C54.8226 16.7231 54.5923 16.954 54.3513 16.7569L53.8314 16.2512C53.6907 16.089 53.7823 15.8609 53.8589 15.6932C55.0548 13.1284 57.4027 11.0616 60.3472 10.9875C60.4238 10.9863 60.5001 10.9863 60.5767 10.9867C62.4871 11.0166 64.354 11.8754 65.5338 13.3318C66.9836 15.1216 67.4745 17.5672 67.4835 19.8898V32.9495L70.1321 33.8429C70.1321 33.8429 70.327 33.9069 70.3451 34.1366V34.6881C70.3254 34.9248 70.2779 34.959 70.0597 34.997L65.0512 35.458ZM62.2568 24.008C59.9192 24.5156 57.4813 25.558 56.6607 27.6493C56.3078 28.55 56.248 29.5497 56.4217 30.5012C56.6296 31.639 57.4259 32.7865 58.7158 32.9336C60.7606 33.1661 62.6593 31.3057 63.452 29.1596C63.8564 28.0645 64.0254 26.8953 64.0305 25.726V23.6296C63.4394 23.7558 62.8479 23.8819 62.2568 24.008Z" fill="#093CAD"></path><path d="M85.2094 35.4095H84.6521C84.3876 35.3835 84.3605 35.3284 84.3377 35.0991V32.7194C84.2599 32.8102 84.2481 32.8261 84.0347 33.059C81.8157 35.4386 78.0377 36.602 75.2221 34.177C73.294 32.5168 72.506 29.8756 72.1543 27.2961C71.7007 23.968 71.7754 20.5134 72.7713 17.3572C73.4885 15.0831 74.8715 12.8836 77.0858 11.7931C79.2989 10.7034 81.982 10.8578 84.3243 11.9755L84.3377 2.9439L81.7163 2.31251C81.4989 2.238 81.4895 2.14681 81.4762 2.01098V1.36756C81.4993 1.13433 81.5917 1.10484 81.7273 1.06331L86.9296 0.00620868L87.4763 0C87.4967 0.00194035 87.5172 0.00388047 87.5376 0.00582082C87.7656 0.0741213 87.7766 0.170363 87.7907 0.310456V32.7194L90.4793 33.6574C90.4793 33.6574 90.6695 33.7633 90.6892 33.95V34.5934C90.6727 34.7471 90.6432 34.8538 90.4054 34.9023L85.2094 35.4095ZM80.6347 13.4886C79.6243 13.499 78.6087 13.7901 77.8486 14.4746C76.198 15.961 75.8934 18.3484 75.7126 20.4152C75.4626 23.2745 75.4666 26.2285 76.2043 28.9384C76.5796 30.3184 77.2662 31.7267 78.4672 32.3119C79.3967 32.7648 80.5365 32.7225 81.4927 32.3306C82.698 31.8369 83.5863 30.814 84.3196 29.7887L84.3377 14.7653C84.2674 14.7184 84.197 14.6718 84.1259 14.6256C83.0832 13.9546 81.9183 13.4843 80.6347 13.4886Z" fill="#093CAD"></path><path d="M102.371 35.1023H92.7463C92.483 35.0767 92.4555 35.0212 92.4319 34.7919V34.0565C92.4437 33.9296 92.5066 33.833 92.6245 33.7705L95.5171 32.564V4.85067L92.6245 3.64416C92.5105 3.58323 92.4476 3.48855 92.4319 3.35815V2.62276C92.4594 2.36159 92.5144 2.33481 92.7463 2.3123C95.8669 2.3123 98.9835 2.29988 102.104 2.31308C104.584 2.34374 107.182 2.91498 108.899 4.79169C110.338 6.36337 110.837 8.63591 110.739 10.7656C110.617 13.2551 109.587 15.8901 107.237 17.1622L107.182 17.1898C108.263 17.4921 109.96 18.4196 110.911 19.9074C112.326 22.1152 112.456 24.9481 112.165 27.3394C111.859 29.9115 110.644 32.4817 108.215 33.8306C106.447 34.8124 104.368 35.0981 102.371 35.1023ZM99.1917 18.742V32.5512C102.057 32.5512 105.162 32.9509 107.005 30.6841C108.616 28.7046 108.659 25.6256 108.231 23.2596C107.987 21.9153 107.394 20.5644 106.219 19.753C104.273 18.4099 101.699 18.742 99.1917 18.742ZM99.1917 4.8173V16.1909C101.66 16.1909 104.285 16.5518 105.893 14.5497C106.859 13.3467 107.083 11.7261 107.072 10.2565C107.06 8.38212 106.537 6.41887 104.875 5.484C103.228 4.55768 101.176 4.8173 99.1917 4.8173Z" fill="#093CAD"></path><path d="M120.014 11.503C120.238 11.5558 120.265 11.6008 120.281 11.8096C120.281 16.9271 120.265 22.0446 120.281 27.1617C120.293 28.7776 120.478 30.4913 121.484 31.6517C122.085 32.3444 123.028 32.6991 123.995 32.6319C125.669 32.5159 126.958 31.1375 127.678 29.8141L128.46 28.412V13.8089L125.752 12.6936C125.646 12.6381 125.575 12.5978 125.559 12.4072V11.8096C125.579 11.5636 125.642 11.5174 125.874 11.4991H131.596C131.847 11.5185 131.895 11.5799 131.91 11.8096V32.8547L134.548 33.6165C134.548 33.6165 134.756 33.7239 134.771 33.9145V34.5579C134.752 34.7977 134.701 34.8331 134.481 34.8676L129.34 35.2359L128.762 35.232C128.538 35.1792 128.511 35.1342 128.495 34.9254V32.134C128.456 32.1926 128.413 32.2512 128.373 32.309C127.041 34.1458 125.099 35.5828 122.788 35.5572C120.996 35.5374 119.244 34.6631 118.226 33.2008C117.137 31.6311 116.834 29.6577 116.826 27.8028V13.8078L114.158 12.6932C114.158 12.6932 113.981 12.5714 113.965 12.4072V11.8096C113.985 11.5636 114.048 11.5174 114.28 11.4991H119.967C119.982 11.5007 119.998 11.5019 120.014 11.503Z" fill="#093CAD"></path><path d="M148.053 18.5069H147.57C147.342 18.4875 147.318 18.4522 147.263 18.2578L146.399 14.0387C144.485 13.0844 141.867 12.8446 140.578 14.6825C140.134 15.319 139.969 16.1254 139.969 16.9097C139.969 17.5903 140.099 18.2923 140.488 18.8655C141.411 20.2296 143.172 20.686 144.563 21.3193C146.21 22.0803 147.841 23.0156 148.867 24.5473C150.101 26.3925 150.266 28.8459 149.625 31.0284C149.17 32.5776 148.085 33.9444 146.639 34.6942C144.909 35.5918 142.842 35.7132 140.881 35.421C139.431 35.2049 137.91 34.7819 136.927 33.7857C136.927 33.7857 136.813 33.6526 136.817 33.5105L137.485 27.7201C137.528 27.4912 137.58 27.4621 137.796 27.4446L138.334 27.4493C138.35 27.4539 138.37 27.4586 138.385 27.4632C138.57 27.5467 138.562 27.5975 138.59 27.6984L139.49 32.4697C140.669 33.0809 142.072 33.2428 143.392 33.1027C144.501 32.9855 145.648 32.5458 146.253 31.519C146.65 30.8425 146.772 30.0396 146.772 29.2716C146.772 28.5122 146.611 27.7368 146.194 27.0926C145.129 25.4468 143.007 24.8694 141.408 24.0626C139.56 23.13 137.764 21.7357 137.167 19.6828C136.255 16.5324 137.462 12.7394 140.779 11.4491C143.396 10.4293 146.501 10.9221 148.792 12.4437C148.792 12.4437 149.044 12.54 149.036 12.8112L148.364 18.2341C148.317 18.4612 148.27 18.4895 148.053 18.5069Z" fill="#093CAD"></path><path d="M150 41.4552H0V47.3806H150V41.4552Z" fill="#E60212"></path></svg> 